# AST/ASF file generated using VICON BodyLanguage
# -----------------------------------------------
:version 1.10
:name VICON
:units
  mass 1.0
  length 0.45
  angle deg
:documentation
   .ast/.asf automatically generated from VICON data using
   VICON BodyBuilder and BodyLanguage model FoxedUp or BRILLIANT.MOD
:root
   order TX TY TZ RX RY RZ
   axis XYZ
   position 0 0 0  
   orientation 0 0 0 
:bonedata
  begin
     id 1 
     name lhipjoint
     direction 0.671379 -0.66392 0.329334 
     length 2.38647 
     axis 0 0 0  XYZ
  end
  begin
     id 2 
     name lfemur
     direction 0.34202 -0.939693 0  
     length 6.48179  
     axis 0 0 20  XYZ
    dof rx ry rz
    limits (-160.0 20.0)
           (-70.0 70.0)
           (-60.0 70.0)
  end
  begin
     id 3 
     name ltibia
     direction 0.34202 -0.939693 0   
     length 6.86524   
     axis 0 0 20   XYZ
    dof rx
    limits (-10.0 170.0)
  end
  begin
     id 4 
     name lfoot
     direction 0.204886 -0.562919 0.800715   
     length 1.73031   
     axis -90 7.62852e-016 20   XYZ
    dof rx rz
    limits (-45.0 90.0)
           (-70.0 20.0)
  end
  begin
     id 5 
     name ltoes
     direction 1.53548e-011 -4.21841e-011 1   
     length 0.828161   
     axis -90 7.62852e-016 20   XYZ
    dof rx
    limits (-90.0 20.0)
  end
  begin
     id 6 
     name rhipjoint
     direction -0.662732 -0.670855 0.332775   
     length 2.3618  
     axis 0 0 0  XYZ 
  end
  begin
     id 7 
     name rfemur
     direction -0.34202 -0.939693 0   
     length 6.3025   
     axis 0 0 -20   XYZ
    dof rx ry rz
    limits (-160.0 20.0)
           (-70.0 70.0)
           (-70.0 60.0)
  end
  begin
     id 8 
     name rtibia
     direction -0.34202 -0.939693 0   
     length 6.8732   
     axis 0 0 -20   XYZ
    dof rx
    limits (-10.0 170.0)
 end
 begin
     id 9 
     name rfoot
     direction -0.173856 -0.477665 0.861168   
     length 1.54784  
     axis -90 -7.62852e-016 -20   XYZ
    dof rx rz
    limits (-45.0 90.0)
           (-20.0 70.0)
  end
  begin
     id 10 
     name rtoes
     direction -1.53562e-011 -4.21802e-011 1   
     length 0.759618   
     axis -90 -7.62852e-016 -20   XYZ
    dof rx
    limits (-90.0 20.0)
  end
  begin
     id 11 
     name lowerback
     direction -0.0278357 0.999497 -0.0151789   
     length 1.97203   
     axis 0 0 0   XYZ
    dof rx ry rz
    limits (-20.0 45.0)
           (-30.0 30.0)
           (-30.0 30.0)
  end
  begin
     id 12 
     name upperback
     direction -0.00360622 0.997542 0.0699804   
     length 1.94709   
     axis 0 0 0   XYZ
    dof rx ry rz
    limits (-20.0 45.0)
           (-30.0 30.0)
           (-30.0 30.0)
  end
  begin
     id 13 
     name thorax
     direction 0.00907706 0.997048 0.0762461   
     length 1.95722   
     axis 0 0 0   XYZ
    dof rx ry rz
    limits (-20.0 45.0)
           (-30.0 30.0)
           (-30.0 30.0)
  end
  begin
     id 14 
     name lowerneck
     direction -0.0481835 0.99872 -0.0153927   
     length 1.63078   
     axis 0 0 0   XYZ
    dof rx ry rz
    limits (-20.0 45.0)
           (-30.0 30.0)
           (-30.0 30.0)
  end
  begin
     id 15 
     name upperneck
     direction 0.0859716 0.979226 -0.183644   
     length 1.62591   
     axis 0 0 0   XYZ
    dof rx ry rz
    limits (-20.0 45.0)
           (-30.0 30.0)
           (-30.0 30.0)
  end
  begin
     id 16
     name head
     direction 0.0324821 0.997629 -0.0606773  
     length 1.64811  
     axis 0 0 0   XYZ
    dof rx ry rz
    limits (-20.0 45.0)
           (-30.0 30.0)
           (-30.0 30.0)
  end
  begin
     id 17 
     name lclavicle
     direction 0.939609 0.311019 0.142835  
     length 3.70647  
     axis 0 0 0   XYZ
    dof ry rz
    limits (-20.0 10.0)
           (0.0 20.0)
  end
  begin
     id 18 
     name lhumerus
     direction 1 -4.48963e-011 -1.59838e-027   
     length 4.59207   
     axis 180 -30 -90   XYZ
    dof rx ry rz
    limits (-60.0 90.0)
           (-90.0 90.0)
           (-90.0 90.0)
  end
  begin
     id 19
     name lradius
     direction 1 -4.48957e-011 -1.3483e-026   
     length 2.98109   
     axis 180 -30 -90   XYZ
    dof rx
    limits (-10.0 170.0)
  end
  begin
     id 20
     name lwrist
     direction 1 -4.48954e-011 -3.11579e-026   
     length 1.49055   
     axis 2.00652e-014 90 90   XYZ
    dof ry
    limits (-180.0 0.0)
 end
  begin
     id 21 
     name lhand
     direction 1 -4.4911e-011 -6.23158e-026   
     length 0.480203   
     axis 3.97628e-014 90 90   XYZ
    dof rx rz
    limits (-90.0 90.0)
           (-45.0 45.0)
  end
  begin
     id 22 
     name lfingers
     direction 1 -4.48893e-011 -1.24632e-025   
     length 0.387152   
     axis 7.95256e-014 90 90   XYZ
    dof rx
    limits (0.0 90.0)
  end
  begin
     id 23
     name lthumb
     direction 0.707107 -6.35013e-011 0.707107   
     length 0.555875   
     axis -90 45 2.85299e-015   XYZ
    dof rx rz
    limits (-45.0 45.0)
           (-45.0 45.0)
  end
  begin
     id 24 
     name rclavicle
     direction -0.950396 0.30392 0.0661859   
     length 3.70894  
     axis 0 0 0   XYZ 
    dof ry rz
    limits (-10.0 20.0)
           (-20.0 0.0)
  end
  begin
     id 25 
     name rhumerus
     direction -1 -4.48957e-011 -2.96677e-027  
     length 4.76508   
     axis 180 30 90   XYZ
    dof rx ry rz
    limits (-90.0 60.0)
           (-90.0 90.0)
           (-90.0 90.0)
  end
  begin
     id 26 
     name rradius
     direction -1 -4.48974e-011 -1.44501e-026   
     length 2.78902   
     axis 180 30 90   XYZ
    dof rx
    limits (-10.0 170.0)
  end
  begin
     id 27 
     name rwrist
     direction -1 -4.48978e-011 -3.11579e-026   
     length 1.39451   
     axis 2.00652e-014 -90 -90   XYZ
    dof ry
    limits (-180.0 0.0)
  end
  begin
     id 28
     name rhand
     direction -1 -4.48956e-011 -6.23158e-026   
     length 0.721303   
     axis 3.97628e-014 -90 -90   XYZ
    dof rx rz
    limits (-90.0 90.0)
           (-45.0 45.0)
  end
  begin
     id 29
     name rfingers
     direction -1 -4.4899e-011 -1.24632e-025   
     length 0.581533   
     axis 7.95256e-014 -90 -90   XYZ
    dof rx
    limits (0.0 90.0)
  end
  begin
     id 30
     name rthumb
     direction -0.707107 -6.34911e-011 0.707107   
     length 0.834968   
     axis -90 -45 -2.85299e-015   XYZ
    dof rx rz
    limits (-45.0 45.0)
           (-45.0 45.0)
  end
:hierarchy
  begin
    root lhipjoint rhipjoint lowerback
    lhipjoint lfemur
    lfemur ltibia
    ltibia lfoot
    lfoot ltoes
    rhipjoint rfemur
    rfemur rtibia
    rtibia rfoot
    rfoot rtoes
    lowerback upperback
    upperback thorax
    thorax lowerneck lclavicle rclavicle
    lowerneck upperneck
    upperneck head
    lclavicle lhumerus
    lhumerus lradius
    lradius lwrist
    lwrist lhand lthumb
    lhand lfingers
    rclavicle rhumerus
    rhumerus rradius
    rradius rwrist
    rwrist rhand rthumb
    rhand rfingers
  end

#!OML:ASF I:\salsa\salsa 7_09\Patient 1\Session 1\dancerfemale.ASF
:FULLY-SPECIFIED
:DEGREES
657
root -18.3923 16.0111 3.80368 -349.055 68.2047 -353.78
lowerback 6.61421 -1.73113 -0.36199
upperback -5.47768 -2.52594 -2.48028
thorax -9.6378 -1.27773 -2.06787
lowerneck -0.385848 5.64122 0.0106122
upperneck 3.72364 7.36401 9.75821
head 0.848109 3.85285 3.15992
rclavicle 3.91109e-014 3.97569e-016
rhumerus -16.2224 25.4231 -99.6555
rradius 79.1079
rwrist -1.51452
rhand 0.692055 53.1427
rfingers 7.12502
rthumb 26.2531 24.9389
lclavicle 3.91109e-014 3.97569e-016
lhumerus -48.6976 -0.0150734 79.9599
lradius 108.862
lwrist -35.5066
lhand -22.7721 40.1014
lfingers 7.12502
lthumb 3.66318 70.0497
rfemur -7.06633 -6.39694 12.6658
rtibia 50.0985
rfoot 3.14297 -3.4536
rtoes -14.9478
lfemur -23.0836 18.6559 -30.6631
ltibia 36.8822
lfoot -27.7031 15.6322
ltoes -9.49134
658
root -18.5317 16.0261 3.82756 -352.149 64.1121 -357.403
lowerback 6.49477 -1.35863 0.120158
upperback -5.64379 -1.9532 -2.19541
thorax -9.73245 -1.02409 -2.12226
lowerneck -0.347466 6.56335 0.0426829
upperneck 3.91621 8.58411 10.2098
head 0.818282 4.47474 3.30435
rclavicle -2.06736e-014 -1.59028e-015
rhumerus -14.7582 27.5935 -99.7565
rradius 78.9479
rwrist -1.74957
rhand 0.970095 53.2943
rfingers 7.12502
rthumb 26.5192 25.1304
lclavicle -2.06736e-014 -1.59028e-015
lhumerus -50.1133 1.59811 77.9399
lradius 107.987
lwrist -35.8328
lhand -24.2689 40.6835
lfingers 7.12502
lthumb 2.21769 70.6517
rfemur -6.09214 -4.87644 13.3004
rtibia 46.1678
rfoot 2.95218 -3.70932
rtoes -16.9645
lfemur -24.1866 18.6729 -29.212
ltibia 37.5035
lfoot -28.4246 18.7699
ltoes -7.12882
659
root -18.6658 16.058 3.86248 -353.887 60.0686 -359.614
lowerback 6.28397 -0.945076 0.172064
upperback -5.69492 -1.37016 -1.9324
thorax -9.63063 -0.735261 -1.95927
lowerneck -0.449008 7.45628 -0.0137227
upperneck 4.08153 9.76392 10.6991
head 0.79436 5.07843 3.48056
rclavicle -2.88238e-014 -2.54444e-014
rhumerus -13.3634 29.5659 -99.8717
rradius 78.9696
rwrist -2.0155
rhand 1.4977 53.2459
rfingers 7.12502
rthumb 27.0241 25.1593
lclavicle -2.88238e-014 -2.54444e-014
lhumerus -51.3277 2.97596 75.782
lradius 107.089
lwrist -35.4514
lhand -25.1332 40.173
lfingers 7.12502
lthumb 1.38294 70.1483
rfemur -5.05593 -3.13432 13.8101
rtibia 42.0264
rfoot 2.47761 -3.17407
rtoes -14.2414
lfemur -24.9763 18.7692 -27.8663
ltibia 37.9059
lfoot -29.1948 21.793
ltoes -4.74862
660
root -18.7987 16.0922 3.90868 -354.813 56.1839 -360.937
lowerback 6.07152 -0.562088 -0.00484819
upperback -5.74277 -0.862288 -1.79898
thorax -9.53057 -0.471518 -1.79214
lowerneck -0.505275 8.3349 0.0821702
upperneck 4.30126 10.9209 11.0734
head 0.789498 5.67256 3.58928
rclavicle -4.5472e-014 -3.97569e-015
rhumerus -12.2984 31.3612 -100.182
rradius 79.173
rwrist -2.15822
rhand 2.47516 52.9644
rfingers 7.12502
rthumb 27.9589 25.0264
lclavicle -4.5472e-014 -3.97569e-015
lhumerus -52.4676 4.13806 73.2887
lradius 106.012
lwrist -35.1214
lhand -26.5477 39.7425
lfingers 7.12502
lthumb 0.0168058 69.7223
rfemur -3.97525 -1.36439 14.1815
rtibia 38.1983
rfoot 0.996734 -1.63862
rtoes -9.56538
lfemur -25.6314 19.0042 -26.6375
ltibia 38.4155
lfoot -30.1695 24.469
ltoes -2.4275
661
root -18.9225 16.1552 3.95967 -355.205 52.5653 -361.682
lowerback 5.85423 -0.23863 -0.33328
upperback -5.79952 -0.456728 -1.76166
thorax -9.44623 -0.250555 -1.62534
lowerneck -0.412834 9.21687 0.342806
upperneck 4.45443 12.0921 11.2924
head 0.753339 6.26759 3.60393
rclavicle -2.17669e-014 -4.77083e-015
rhumerus -11.3793 33.1253 -100.675
rradius 79.0987
rwrist -1.72613
rhand 2.43787 52.9996
rfingers 7.12502
rthumb 27.9233 25.0557
lclavicle -2.17669e-014 -4.77083e-015
lhumerus -53.5479 5.10663 70.8325
lradius 104.935
lwrist -35.1515
lhand -28.2103 40.4899
lfingers 7.12502
lthumb -1.589 70.4637
rfemur -2.98389 0.335796 14.3767
rtibia 34.7485
rfoot -1.6016 -1.04588
rtoes -10.5719
lfemur -26.2037 19.9252 -25.6583
ltibia 39.0397
lfoot -31.0489 26.3328
ltoes -1.25037
662
root -19.0558 16.1929 4.00444 -356.144 49.2802 -363.179
lowerback 5.79089 0.0384027 -0.0207382
upperback -5.83556 -0.0406061 -1.59189
thorax -9.43634 -0.0639932 -1.67788
lowerneck -0.471564 10.0545 0.598033
upperneck 4.62047 13.1969 11.453
head 0.756051 6.833 3.6101
rclavicle -7.85199e-015 -8.74653e-015
rhumerus -10.5591 34.5906 -101.213
rradius 78.9941
rwrist -1.66326
rhand 2.79038 53.0841
rfingers 7.12502
rthumb 28.2602 25.1956
lclavicle -7.85199e-015 -8.74653e-015
lhumerus -54.3829 5.90122 68.6153
lradius 103.996
lwrist -35.1955
lhand -29.2885 40.1832
lfingers 7.12502
lthumb -2.63033 70.1468
rfemur -2.47921 1.95658 15.2901
rtibia 32.0255
rfoot -3.20047 -0.208743
rtoes -10.4533
lfemur -27.1775 21.6835 -24.1881
ltibia 40.1365
lfoot -31.3065 27.4792
ltoes -2.97672
663
root -19.199 16.1859 4.03853 -357.711 46.396 -365.512
lowerback 5.88274 0.250218 1.17266
upperback -5.74141 0.385713 -1.29674
thorax -9.37074 0.0726421 -2.09299
lowerneck -0.824856 10.7686 0.630345
upperneck 4.75226 14.1299 11.7056
head 0.786666 7.31761 3.70542
rclavicle -5.51627e-014 -7.15625e-015
rhumerus -9.74596 35.7945 -101.567
rradius 78.8518
rwrist -2.10139
rhand 3.20174 53.3734
rfingers 7.12502
rthumb 28.6533 25.5505
lclavicle -5.51627e-014 -7.15625e-015
lhumerus -54.8541 6.16928 67.1526
lradius 103.347
lwrist -35.2496
lhand -30.7107 45.0807
lfingers 7.12502
lthumb -4.00379 75.0229
rfemur -2.39319 2.36793 16.8474
rtibia 30.1632
rfoot -3.4693 1.07428
rtoes -7.5066
lfemur -28.5315 23.4131 -21.9257
ltibia 41.8745
lfoot -31.3456 28.3113
ltoes -0.628482
